<?xml version="1.0" encoding="utf-8"?>
<!-- Generator: Adobe Illustrator 19.2.0, SVG Export Plug-In . SVG Version: 6.00 Build 0)  -->
<svg version="1.1" id="Layer_1" xmlns="http://www.w3.org/2000/svg" xmlns:xlink="http://www.w3.org/1999/xlink" x="0px" y="0px"
	 viewBox="0 0 151.1 48.7" style="enable-background:new 0 0 151.1 48.7;" xml:space="preserve">
<style type="text/css">
	.st0{fill:#59595A;}
	.st1{fill:#4D91FF;}
</style>
<path class="st0" d="M42.7,16.5c-0.4-0.7-1.3-0.8-2-0.4L24.4,27L8,16.1c-0.7-0.4-1.5-0.3-2,0.4c-0.4,0.7-0.3,1.5,0.4,2l16.5,11v12.1
	c0,0.8,0.6,1.4,1.4,1.4s1.4-0.6,1.4-1.4V29.4l16.5-11C42.9,18,43.1,17.1,42.7,16.5z"/>
<g>
	<path class="st1" d="M34.4,7L34.4,7C34.3,7,34.3,7,34.4,7C34.4,6.9,34.4,6.9,34.4,7c0-0.1,0-0.1,0-0.2l0,0c0,0,0,0,0-0.1l0,0l0,0
		l0,0l0,0l0,0l0,0l0,0l0,0l0,0l0,0l0,0c0,0,0,0,0-0.1l0,0c0,0,0,0-0.1-0.1l0,0l0,0l0,0l0,0l0,0l0,0l0,0l0,0l-8.6-5.7
		c-0.5-0.3-1.1-0.3-1.6,0L15,5.9l0,0l0,0l0,0l0,0l0,0l0,0l0,0l0,0c0,0,0,0-0.1,0.1l0,0c0,0,0,0,0,0.1l0,0l0,0l0,0l0,0l0,0l0,0l0,0
		l0,0l0,0l0,0l0,0c0,0,0,0,0,0.1l0,0c0,0,0,0,0,0.1l0,0c0,0,0,0,0,0.1l0,0v0.1v8.6c0,0.5,0.2,0.9,0.6,1.2l8.6,5.7l0,0c0,0,0,0,0.1,0
		l0,0l0,0l0,0c0,0,0.1,0,0.1,0.1l0,0h0.1l0,0h0.1l0,0c0.1,0,0.1,0,0.2,0l0,0l0,0c0.1,0,0.1,0,0.2,0l0,0H25l0,0c0.1,0,0.1,0,0.1,0
		l0,0c0,0,0.1,0,0.1-0.1l0,0l0,0l0,0c0,0,0,0,0.1,0l0,0l8.6-5.7c0.4-0.3,0.6-0.7,0.6-1.2L34.4,7C34.4,7.1,34.4,7.1,34.4,7z
		 M24.4,3.1l6,4l-6,4l-6-4L24.4,3.1z M17.2,9.8l5.7,3.8v5.1l-5.7-3.8V9.8z M31.5,14.9l-5.7,3.8v-5.1l5.7-3.8V14.9z"/>
	<path class="st1" d="M20,32.9L20,32.9L20,32.9C20,32.8,20,32.8,20,32.9c0-0.1,0-0.1,0-0.2l0,0c0,0,0,0,0-0.1l0,0l0,0l0,0l0,0l0,0
		l0,0l0,0l0,0l0,0c0,0,0,0,0-0.1l0,0c0,0,0,0,0-0.1l0,0c0,0,0,0-0.1-0.1l0,0l0,0l0,0l0,0l0,0l0,0l0,0l0,0l-8.6-5.7
		c-0.5-0.3-1.1-0.3-1.6,0l-8.6,5.7l0,0l0,0l0,0l0,0l0,0l0,0l0,0l0,0c0,0,0,0-0.1,0.1l0,0c0,0,0,0,0,0.1l0,0l0,0l0,0l0,0l0,0l0,0l0,0
		l0,0l0,0l0,0l0,0c0,0,0,0,0,0.1l0,0c0,0,0,0,0,0.1l0,0c0,0,0,0,0,0.1l0,0C0,33,0,33,0,33v8.6c0,0.5,0.2,0.9,0.6,1.2l8.6,5.7l0,0
		c0,0,0,0,0.1,0l0,0l0,0l0,0c0,0,0.1,0,0.1,0.1l0,0c0,0,0.1,0,0.2,0l0,0h0.1l0,0c0.1,0,0.1,0,0.2,0l0,0l0,0l0,0c0.1,0,0.1,0,0.2,0
		l0,0h0.1l0,0c0.1,0,0.1,0,0.1,0l0,0c0,0,0.1,0,0.1-0.1l0,0l0,0l0,0c0,0,0,0,0.1,0l0,0l8.6-5.7c0.4-0.3,0.6-0.7,0.6-1.2L20,32.9
		C20,33,20,33,20,32.9z M10,29l6,4l-6,4l-6-4L10,29z M2.9,35.7l5.7,3.8v5.1l-5.7-3.8C2.9,40.8,2.9,35.7,2.9,35.7z M17.1,40.8
		l-5.7,3.8v-5.1l5.7-3.8V40.8z"/>
	<path class="st1" d="M48.7,32.9L48.7,32.9L48.7,32.9C48.7,32.8,48.7,32.8,48.7,32.9c0-0.1,0-0.1,0-0.2l0,0c0,0,0,0,0-0.1l0,0l0,0
		l0,0l0,0l0,0l0,0l0,0l0,0l0,0c0,0,0,0,0-0.1l0,0c0,0,0,0,0-0.1l0,0c0,0,0,0-0.1-0.1l0,0l0,0l0,0l0,0l0,0l0,0l0,0l0,0L40,26.6
		c-0.5-0.3-1.1-0.3-1.6,0l-8.6,5.7l0,0l0,0l0,0l0,0l0,0l0,0l0,0l0,0c0,0,0,0-0.1,0.1l0,0c0,0,0,0,0,0.1l0,0l0,0l0,0l0,0l0,0l0,0l0,0
		l0,0l0,0l0,0l0,0c0,0,0,0,0,0.1l0,0c0,0,0,0,0,0.1l0,0c0,0,0,0,0,0.1l0,0v0.1v8.6c0,0.5,0.2,0.9,0.6,1.2l8.6,5.7l0,0c0,0,0,0,0.1,0
		l0,0l0,0l0,0c0,0,0.1,0,0.1,0.1l0,0h0.1l0,0h0.1l0,0c0.1,0,0.1,0,0.2,0l0,0l0,0c0.1,0,0.1,0,0.2,0l0,0h0.1l0,0c0.1,0,0.1,0,0.1,0
		l0,0c0,0,0.1,0,0.1-0.1l0,0l0,0l0,0c0,0,0,0,0.1,0l0,0l8.6-5.7c0.4-0.3,0.6-0.7,0.6-1.2L48.7,32.9C48.7,33,48.7,33,48.7,32.9z
		 M38.7,29l6,4l-6,4l-6-4L38.7,29z M31.6,35.7l5.7,3.8v5.1l-5.7-3.8C31.6,40.8,31.6,35.7,31.6,35.7z M45.9,40.8l-5.7,3.8v-5.1
		l5.7-3.8V40.8z"/>
</g>
<g>
	<path class="st0" d="M61.2,19.6v3.2h6.2v3.7h-6.2v6.2h-3.8V15.9h10.2v3.7H61.2z"/>
	<path class="st0" d="M68.7,15.2h3.6v17.5h-3.6V15.2z"/>
	<path class="st0" d="M80.1,29.8c1,0,1.8-0.4,2.3-0.9l2.9,1.7c-1.2,1.6-3,2.5-5.2,2.5c-4.1,0-6.6-2.8-6.6-6.3s2.6-6.3,6.4-6.3
		c3.5,0,6.1,2.7,6.1,6.3c0,0.5,0,1-0.1,1.4h-8.5C77.7,29.4,78.8,29.8,80.1,29.8z M82.3,25.4c-0.4-1.4-1.5-1.9-2.5-1.9
		c-1.4,0-2.3,0.7-2.6,1.9H82.3z"/>
	<path class="st0" d="M92.9,29.8c1,0,1.8-0.4,2.3-0.9l2.9,1.7c-1.2,1.6-3,2.5-5.2,2.5c-4.1,0-6.6-2.8-6.6-6.3s2.6-6.3,6.4-6.3
		c3.5,0,6.1,2.7,6.1,6.3c0,0.5,0,1-0.1,1.4h-8.5C90.5,29.4,91.6,29.8,92.9,29.8z M95.2,25.4c-0.4-1.4-1.5-1.9-2.5-1.9
		c-1.4,0-2.3,0.7-2.6,1.9H95.2z"/>
	<path class="st0" d="M104,24.1v4.2c0,1,0.9,1.1,2.5,1v3.3c-4.7,0.5-6.1-0.9-6.1-4.3v-4.2h-1.9v-3.5h1.9v-2.3l3.6-1.1v3.4h2.5v3.5
		C106.5,24.1,104,24.1,104,24.1z"/>
	<path class="st1" d="M119.2,19.6h-4.3v13.1H111V19.6h-4.3v-3.7h12.5V19.6z"/>
	<path class="st1" d="M125.6,20.4v4.1c-1.5-0.2-3.6,0.4-3.6,2.7v5.4h-3.6v-12h3.6v2.1C122.4,21.2,124.1,20.4,125.6,20.4z"/>
	<path class="st1" d="M138.2,20.7v12h-3.6v-1.1c-0.8,0.9-2,1.5-3.6,1.5c-3.1,0-5.7-2.8-5.7-6.3s2.6-6.3,5.7-6.3
		c1.6,0,2.8,0.6,3.6,1.5v-1.1h3.6V20.7z M134.6,26.7c0-1.8-1.2-2.9-2.9-2.9s-2.9,1.1-2.9,2.9s1.2,2.9,2.9,2.9S134.6,28.5,134.6,26.7
		z"/>
	<path class="st1" d="M139.3,26.7c0-3.6,2.7-6.3,6.4-6.3c2.3,0,4.4,1.2,5.4,3.1l-3.1,1.8c-0.4-0.8-1.3-1.3-2.3-1.3
		c-1.6,0-2.7,1.1-2.7,2.8s1.2,2.8,2.7,2.8c1.1,0,1.9-0.5,2.3-1.3l3.1,1.8c-1,1.9-3.1,3.1-5.4,3.1C142,33,139.3,30.3,139.3,26.7z"/>
</g>
</svg>
