<?xml version="1.0" encoding="utf-8"?>
<!-- Generator: Adobe Illustrator 19.2.0, SVG Export Plug-In . SVG Version: 6.00 Build 0)  -->
<svg version="1.1" id="Capa_1" xmlns="http://www.w3.org/2000/svg" xmlns:xlink="http://www.w3.org/1999/xlink" x="0px" y="0px"
	 viewBox="0 0 247.8 247.8" style="enable-background:new 0 0 247.8 247.8;" xml:space="preserve">
<style type="text/css">
	.st0{fill:#A6AEBF;}
</style>
<path class="st0" d="M223.8,122.9c-3.3,0-6,2.7-6,6v106.9h-64.4v-67.1c0-3.3-2.7-6-6-6h-47c-3.3,0-6,2.7-6,6v53.2c0,3.3,2.7,6,6,6
	s6-2.7,6-6v-47.2h35v61.1H30V88.9l93.9-75.2l96.1,77c2.6,2.1,6.4,1.7,8.4-0.9c2.1-2.6,1.7-6.4-0.9-8.4l-99.9-80
	c-2.2-1.8-5.3-1.8-7.5,0l-99.9,80C18.8,82.5,18,84.2,18,86v155.7c0,3.3,2.7,6,6,6h199.8c3.3,0,6-2.7,6-6V128.9
	C229.8,125.6,227.1,122.9,223.8,122.9z"/>
</svg>
