<?xml version="1.0" encoding="utf-8"?>
<!-- Generator: Adobe Illustrator 19.2.0, SVG Export Plug-In . SVG Version: 6.00 Build 0)  -->
<svg version="1.1" id="Layer_1" xmlns="http://www.w3.org/2000/svg" xmlns:xlink="http://www.w3.org/1999/xlink" x="0px" y="0px"
	 viewBox="0 0 646.1 606.2" style="enable-background:new 0 0 646.1 606.2;" xml:space="preserve">
<style type="text/css">
	.st0{fill:#FFFFFF;stroke:#ffffff;stroke-width:9;stroke-miterlimit:10;}
	.st1{fill:none;stroke:#FFFFFF;stroke-width:9;stroke-linejoin:round;}
	.st2{fill:none;stroke:#FFFFFF;stroke-width:9;stroke-linecap:round;stroke-miterlimit:10;}
	.st3{fill:none;stroke:#FFFFFF;stroke-width:9;stroke-linecap:round;stroke-linejoin:round;}
	.st4{fill:none;stroke:#FFFFFF;stroke-width:9;stroke-miterlimit:10;}
	.st5{fill:none;stroke:#FFFFFF;stroke-width:6;stroke-linecap:round;stroke-linejoin:round;}
	.st6{fill:none;stroke:#FFFFFF;stroke-width:6;stroke-miterlimit:10;}
	.st7{fill:#FFFFFF;stroke:#FFFFFF;stroke-width:0.25;stroke-miterlimit:10;}
	.st8{fill:none;stroke:#FFFFFF;stroke-width:7;stroke-linecap:round;stroke-miterlimit:10;}
</style>
<title>rocket_launch</title>
<path class="st0" d="M148.1,249.7"/>
<path class="st1" d="M283.2,440.5c0,28.5-23.1,51.7-51.7,51.7s-51.7-23.1-51.7-51.7"/>
<line class="st2" x1="283.2" y1="257" x2="283.2" y2="439.9"/>
<path class="st1" d="M286.1,492.2"/>
<path class="st1" d="M128.7,389.4c28.5,0.3,51.4,23.6,51.1,52.2c0,0,0,0,0,0"/>
<path class="st3" d="M92.2,404.5c9.7-9.7,22.8-15.1,36.5-15.1"/>
<path class="st3" d="M120.6,430.8"/>
<path class="st3" d="M23.6,470.5c-9.8-26.8,3.9-56.5,30.7-66.3c21.5-7.9,45.7-0.7,59.3,17.7"/>
<path class="st3" d="M51.3,467"/>
<path class="st3" d="M4.5,479.2c2-7.2,9.5-11.4,16.7-9.4c0,0,0,0,0,0"/>
<path class="st3" d="M40.5,449.9c-3-11.5,3.8-23.2,15.3-26.2"/>
<path class="st4" d="M288.5,390.6"/>
<path class="st1" d="M344.5,440.5c0,28.5,23.1,51.7,51.7,51.7s51.7-23.1,51.7-51.7"/>
<line class="st2" x1="344.5" y1="257" x2="344.5" y2="439.9"/>
<path class="st1" d="M52.2,400.7"/>
<path class="st1" d="M499,389.4c-28.5,0.3-51.4,23.6-51.1,52.2c0,0,0,0,0,0"/>
<path class="st1" d="M535.5,404.5c-9.7-9.7-22.8-15.1-36.5-15.1"/>
<path class="st3" d="M507.1,430.8"/>
<path class="st3" d="M596.8,470.9c9.8-26.8-3.9-56.5-30.7-66.3c-21.5-7.9-45.7-0.7-59.3,17.7"/>
<path class="st3" d="M576.3,467"/>
<path class="st3" d="M641.6,476c-4.2-15-22.1-23-40-18"/>
<path class="st3" d="M482.4,412.6c-8.7,1.4-14.7,9.5-13.3,18.3c0,0,0,0,0,0"/>
<path class="st3" d="M198.4,579c15.4-10.2,36.1-6.1,46.3,9.3c2.7,4,4.5,8.6,5.2,13.4"/>
<path class="st3" d="M4.5,591.9c0-22.2,18-40.2,40.2-40.2s40.2,18,40.2,40.2"/>
<path class="st3" d="M488.9,566.6c0-28.7,23.3-52,52-52s52,23.3,52,52"/>
<path class="st3" d="M67,557.2c7-3.7,14.4-6.6,22.1-8.7c39-10.5,79.3,2.5,108.7,30.8"/>
<path class="st3" d="M21.7,577.4c3-4.6,7.3-8.2,12.3-10.5"/>
<path class="st5" d="M153.3,616.8"/>
<path class="st3" d="M84,583.3c7.4-6,17.8-9.7,29.1-9.7c14.2,0,26.7,5.8,34.1,14.6"/>
<path class="st3" d="M569.6,545.3c4.3,3.8,6.7,8.2,6.7,12.8"/>
<path class="st3" d="M593.1,559.9c14.2-10,32.4-12.3,48.6-6.1"/>
<path class="st3" d="M454.5,569c1.2-9.7,10.1-16.6,19.8-15.4c7.1,0.9,12.9,5.9,14.8,12.8"/>
<path class="st6" d="M362.9,539.7l1.3,3.5c0.1,0.2,0.3,0.3,0.4,0.2c0.1,0,0.2-0.1,0.2-0.2l1.3-3.5c1.1-2.9,3.3-5.1,6.1-6.2l3.5-1.3
	c0.2-0.1,0.3-0.3,0.2-0.4c0-0.1-0.1-0.2-0.2-0.2l-3.5-1.3c-2.9-1.1-5.1-3.3-6.1-6.2l-1.3-3.5c-0.1-0.2-0.3-0.3-0.4-0.2
	c-0.1,0-0.2,0.1-0.2,0.2l-1.3,3.5c-1.1,2.9-3.3,5.1-6.1,6.2l-3.5,1.3c-0.2,0.1-0.3,0.3-0.2,0.4c0,0.1,0.1,0.2,0.2,0.2l3.5,1.3
	C359.6,534.6,361.8,536.8,362.9,539.7z"/>
<path class="st6" d="M48.4,596.3l1.3,3.5c0.1,0.2,0.3,0.3,0.4,0.2c0.1,0,0.2-0.1,0.2-0.2l1.3-3.5c1.1-2.9,3.3-5.1,6.2-6.2l3.5-1.3
	c0.2-0.1,0.3-0.3,0.2-0.4c0-0.1-0.1-0.2-0.2-0.2l-3.5-1.2c-2.9-1.1-5.1-3.3-6.2-6.2l-1.3-3.5c-0.1-0.2-0.3-0.3-0.4-0.2
	c-0.1,0-0.2,0.1-0.2,0.2l-1.3,3.5c-1.1,2.9-3.3,5.1-6.1,6.2l-3.5,1.3c-0.2,0.1-0.3,0.3-0.2,0.4c0,0.1,0.1,0.2,0.2,0.2l3.5,1.3
	C45.1,591.3,47.3,593.5,48.4,596.3z"/>
<path class="st6" d="M527.1,590.8l1.3,3.3c0.1,0.2,0.3,0.2,0.5,0.2c0.1,0,0.1-0.1,0.2-0.2l1.3-3.3c1.1-2.7,3.4-4.8,6.2-5.7l3.5-1.2
	c0.2,0,0.3-0.2,0.2-0.3c0-0.1-0.1-0.2-0.2-0.2l-3.5-1.2c-2.8-0.9-5-3-6.2-5.7l-1.3-3.3c-0.1-0.2-0.3-0.2-0.5-0.2
	c-0.1,0-0.1,0.1-0.2,0.2l-1.3,3.3c-1.1,2.7-3.4,4.8-6.2,5.7l-3.5,1.2c-0.2,0-0.3,0.2-0.2,0.3c0,0.1,0.1,0.2,0.2,0.2l3.5,1.2
	C523.8,586,526,588.1,527.1,590.8z"/>
<path class="st6" d="M119,470.1l1.3,3.5c0.1,0.2,0.3,0.3,0.4,0.2c0.1,0,0.2-0.1,0.2-0.2l1.3-3.5c1.1-2.9,3.3-5.1,6.2-6.1l3.5-1.3
	c0.2-0.1,0.3-0.3,0.2-0.4c0-0.1-0.1-0.2-0.2-0.2l-3.5-1.3c-2.9-1.1-5.1-3.3-6.2-6.1l-1.3-3.5c-0.1-0.2-0.3-0.3-0.4-0.2
	c-0.1,0-0.2,0.1-0.2,0.2l-1.3,3.5c-1.1,2.9-3.3,5.1-6.2,6.1l-3.5,1.3c-0.2,0.1-0.3,0.3-0.2,0.4c0,0.1,0.1,0.2,0.2,0.2l3.5,1.3
	C115.7,465,117.9,467.2,119,470.1z"/>
<path class="st6" d="M568,449.3l1.3,3.5c0.1,0.2,0.3,0.3,0.4,0.2c0.1,0,0.2-0.1,0.2-0.2l1.3-3.5c1.1-2.9,3.3-5.1,6.2-6.1l3.5-1.3
	c0.2-0.1,0.3-0.3,0.2-0.4c0-0.1-0.1-0.2-0.2-0.2l-3.5-1.3c-2.9-1.1-5.1-3.3-6.2-6.1l-1.3-3.5c-0.1-0.2-0.3-0.3-0.4-0.2
	c-0.1,0-0.2,0.1-0.2,0.2l-1.3,3.5c-1.1,2.9-3.3,5.1-6.2,6.1l-3.5,1.3c-0.2,0.1-0.3,0.3-0.2,0.4c0,0.1,0.1,0.2,0.2,0.2l3.5,1.3
	C564.7,444.2,566.9,446.5,568,449.3z"/>
<path class="st7" d="M319,1.2c-1.7-1.4-4.1-1.4-5.8-0.1c-31.7,24.2-50.5,61.6-51,101.5l-0.5,44.7l-28.5,36.1c-0.6,0.8-1,1.8-1,2.9
	l-0.7,62.2c0,2.6,2.1,4.8,4.7,4.8c1,0,1.9-0.3,2.7-0.8l28.1-18.8l9.2,0.1l-4.7,15.1c-0.8,2.5,0.6,5.2,3.1,5.9
	c0.5,0.1,0.9,0.2,1.4,0.2l74.6,0.8c2.6,0,4.8-2.1,4.8-4.7c0-0.4-0.1-0.9-0.2-1.3l-4.3-15.2l9.2,0.1l27.6,19.5c2.1,1.5,5.1,1,6.6-1.1
	c0.6-0.8,0.9-1.7,0.9-2.7l0.7-62.2c0-1.1-0.4-2.1-1-2.9l-27.7-36.7l0.5-44.7C368.2,63.9,350.2,26.1,319,1.2z M260.8,226.2
	l-19.7,13.2l0.6-51.5l19.9-25.2L260.8,226.2z M344.3,246.2l-61.9-0.7l3.6-11.7l54.9,0.6L344.3,246.2z M386.4,189.6l-0.6,51.5
	l-19.4-13.7L367,164L386.4,189.6z M358.2,103.7l-1.4,121.4l-86.6-1l1.4-121.4c0.2-17.7,4.4-35.2,12.1-51.2
	c19,13.2,44.2,13.5,63.5,0.7C354.7,68.4,358.4,86,358.2,103.7L358.2,103.7z M343,43.8c-16.5,11.4-38.4,11.2-54.7-0.6
	c7.3-12.3,16.6-23.2,27.7-32.2C326.9,20.2,336,31.3,343,43.8z"/>
<path class="st8" d="M299.1,94.9c0-9.1,7.4-16.5,16.5-16.5s16.5,7.4,16.5,16.5"/>
</svg>
