<?xml version="1.0" encoding="utf-8"?>
<!-- Generator: Adobe Illustrator 19.2.0, SVG Export Plug-In . SVG Version: 6.00 Build 0)  -->
<svg version="1.1" id="Layer_1" xmlns="http://www.w3.org/2000/svg" xmlns:xlink="http://www.w3.org/1999/xlink" x="0px" y="0px"
	 viewBox="0 0 34.9 40.4" style="enable-background:new 0 0 34.9 40.4;" xml:space="preserve">
<style type="text/css">
	.st0{fill:#C5CCE8;}
	.st1{fill:#3C51A3;}
	.st2{fill:#2B3177;}
	.st3{fill:#D1D8ED;}
	.st4{fill:#5F70B5;}
	.st5{fill:#CBD0EA;}
	.st6{fill:#CCD1EA;}
	.st7{fill:#D3D8ED;}
</style>
<polygon class="st0" points="17.5,0 8.8,15 0,10.1 "/>
<polygon class="st1" points="34.9,10.1 26.1,15 17.5,0 "/>
<path class="st2" d="M17.5,30.2L17.5,30.2L17.5,30.2L17.5,30.2z M34.9,30.3L26.1,15l8.7,15.1l-17.3,0L34.9,30.3z"/>
<polygon class="st2" points="34.9,30.3 17.5,40.4 17.5,30.2 17.5,30.2 "/>
<polygon class="st2" points="34.9,10.1 34.9,30.3 26.1,15 "/>
<polygon class="st3" points="8.8,15 0,30.3 0,10.1 "/>
<polygon class="st1" points="17.5,30.2 17.5,40.4 0,30.3 0,30.3 17.5,30.2 "/>
<polygon class="st4" points="17.5,30.2 0,30.3 8.8,15 8.9,15 "/>
<polygon class="st5" points="26.1,15 17.5,30.2 17.5,30.2 8.9,15 "/>
<polygon class="st6" points="17.5,30.2 17.5,30.2 17.5,30.2 "/>
<polygon class="st7" points="26.1,15 26.1,15 8.9,15 8.8,15 17.5,0 "/>
<polygon class="st4" points="34.9,30.2 17.5,30.2 26.2,15 26.2,15 "/>
</svg>
