<?xml version="1.0" encoding="utf-8"?>
<!-- Generator: Adobe Illustrator 19.2.0, SVG Export Plug-In . SVG Version: 6.00 Build 0)  -->
<svg version="1.1" id="Layer_1" xmlns="http://www.w3.org/2000/svg" xmlns:xlink="http://www.w3.org/1999/xlink" x="0px" y="0px" width="500px" 
	 viewBox="0 0 488.5 343.2" style="enable-background:new 0 0 488.5 343.2;" xml:space="preserve">
<style type="text/css">
	.st0{fill:#59595A;}
	.st1{fill:none;stroke:#59595A;stroke-width:2;stroke-miterlimit:10;}
	.st2{fill:none;stroke:#59595A;stroke-width:1.5;stroke-miterlimit:10;}
	.st3{fill:none;stroke:#59595A;stroke-width:2;stroke-linecap:round;stroke-miterlimit:10;}
	.st4{fill:none;stroke:#59595A;stroke-width:1.5;stroke-linecap:round;stroke-miterlimit:10;}
	.st5{fill:#59595A;stroke:#9B9A9A;stroke-linecap:round;stroke-miterlimit:10;}
	.st6{fill:none;stroke:#9B9A9A;stroke-linecap:round;stroke-miterlimit:10;}
</style>
<path class="st0" d="M160.8,34.1c-0.6-10.7-9.5-19.3-20.1-19.3c-6.5,0-12.7,3.2-16.6,8.3c-0.1,0-0.2-0.1-0.3-0.1
	c-0.2-0.1-0.5-0.2-0.7-0.3c-0.1-0.1-0.3-0.1-0.4-0.2c-0.2-0.1-0.5-0.2-0.7-0.2c-0.1,0-0.3-0.1-0.4-0.1c-0.3-0.1-0.5-0.1-0.8-0.1
	c-0.1,0-0.2,0-0.4-0.1c-0.4,0-0.8-0.1-1.2-0.1c-5.9,0-10.7,4.8-10.7,10.7c0,0.2,0,0.3,0,0.4v0c-5,2.7-8.4,8.4-8.4,14
	c0,8.4,6.9,15.3,15.3,15.3h29.2c0.1,0,0.2,0,0.4,0l0.1,0l0.2,0c0.1,0,0.2,0,0.4,0h11.7c7.9,0,14.3-6.4,14.3-14.3
	C171.5,41.6,167,35.8,160.8,34.1z M157.2,60.1h-11.7c-0.1,0-0.1,0-0.2,0l-0.3,0l-0.2,0c-0.1,0-0.1,0-0.2,0h-29.2
	c-7.1,0-12.9-5.8-12.9-12.9c0-4.9,3.2-10.1,7.7-12.2l0.7-0.3v-0.8c0-0.2,0-0.3,0-0.5l0-0.2l0-0.3c0-0.1,0-0.2,0-0.3
	c0-4.6,3.7-8.3,8.3-8.3c0.4,0,0.7,0,1.1,0.1c0.1,0,0.2,0,0.3,0c0.3,0.1,0.6,0.1,0.9,0.2c0,0,0.1,0,0.1,0c0.3,0.1,0.7,0.2,1,0.4
	c0.1,0,0.2,0.1,0.3,0.1c0.3,0.1,0.6,0.3,0.8,0.5c2.3,1.5,3.8,4.1,3.8,7c0,0.7,0.5,1.2,1.2,1.2c0.7,0,1.2-0.5,1.2-1.2
	c0-3.3-1.5-6.2-3.8-8.2c3.4-4.5,9-7.3,14.6-7.3c9.2,0,16.9,7.3,17.7,16.5c-1.2-0.1-3-0.1-4.9,0.1c-0.7,0.1-1.1,0.7-1,1.4
	c0.1,0.6,0.6,1,1.2,1c0.1,0,0.1,0,0.2,0c2.7-0.4,5.4,0,5.6,0c5.5,1.1,9.7,6.2,9.7,11.9C169.2,54.7,163.8,60.1,157.2,60.1z"/>
<path class="st0" d="M332.3,32.7c0,4.4,3.6,7.9,7.9,7.9h6.5c0.1,0,0.1,0,0.2,0l0.1,0l0,0c0.1,0,0.1,0,0.2,0h16.2
	c4.7,0,8.5-3.8,8.5-8.5c0-3.1-1.9-6.3-4.6-7.8v0c0-0.1,0-0.2,0-0.2c0-3.3-2.7-5.9-5.9-5.9c-0.2,0-0.4,0-0.7,0c-0.1,0-0.1,0-0.2,0
	c-0.2,0-0.3,0-0.5,0.1c-0.1,0-0.2,0-0.2,0.1c-0.1,0-0.3,0.1-0.4,0.1c-0.1,0-0.2,0.1-0.2,0.1c-0.1,0.1-0.3,0.1-0.4,0.2
	c-0.1,0-0.1,0-0.2,0.1c-2.1-2.9-5.6-4.6-9.2-4.6c-5.9,0-10.8,4.7-11.1,10.7C334.8,25.9,332.3,29.1,332.3,32.7z M333.6,32.7
	c0-3.2,2.3-6,5.4-6.6c0.1,0,1.6-0.2,3.1,0c0,0,0.1,0,0.1,0c0.3,0,0.6-0.2,0.7-0.6c0.1-0.4-0.2-0.7-0.6-0.8c-1-0.2-2-0.1-2.7-0.1
	c0.4-5.1,4.7-9.2,9.8-9.2c3.1,0,6.2,1.6,8.1,4c-1.3,1.1-2.1,2.7-2.1,4.5c0,0.4,0.3,0.7,0.7,0.7s0.7-0.3,0.7-0.7
	c0-1.6,0.8-3.1,2.1-3.9c0.1-0.1,0.3-0.2,0.5-0.3c0,0,0.1,0,0.1-0.1c0.2-0.1,0.4-0.2,0.6-0.2c0,0,0,0,0.1,0c0.2,0,0.3-0.1,0.5-0.1
	c0.1,0,0.1,0,0.2,0c0.2,0,0.4,0,0.6,0c2.5,0,4.6,2.1,4.6,4.6c0,0.1,0,0.1,0,0.2l0,0.1l0,0.1c0,0.1,0,0.2,0,0.3v0.4l0.4,0.2
	c2.5,1.2,4.2,4,4.2,6.8c0,3.9-3.2,7.2-7.2,7.2h-16.2c0,0-0.1,0-0.1,0l-0.1,0l-0.2,0c0,0-0.1,0-0.1,0h-6.5
	C336.5,39.4,333.6,36.4,333.6,32.7z"/>
<path class="st0" d="M311.6,45.2c-0.3-5.6-5-10.2-10.6-10.2c-3.4,0-6.7,1.7-8.7,4.4c0,0-0.1,0-0.1-0.1c-0.1-0.1-0.3-0.1-0.4-0.2
	c-0.1,0-0.1-0.1-0.2-0.1c-0.1,0-0.3-0.1-0.4-0.1c-0.1,0-0.1,0-0.2-0.1c-0.1,0-0.3-0.1-0.4-0.1c-0.1,0-0.1,0-0.2,0
	c-0.2,0-0.4,0-0.6,0c-3.1,0-5.6,2.5-5.6,5.6c0,0.1,0,0.2,0,0.2v0c-2.6,1.4-4.4,4.4-4.4,7.4c0,4.4,3.6,8.1,8.1,8.1H303
	c0.1,0,0.1,0,0.2,0l0,0l0.1,0c0.1,0,0.1,0,0.2,0h6.1c4.2,0,7.5-3.4,7.5-7.5C317.2,49.1,314.8,46,311.6,45.2z M309.7,58.8h-6.1
	c0,0-0.1,0-0.1,0l-0.2,0l-0.1,0c0,0-0.1,0-0.1,0h-15.4c-3.7,0-6.8-3-6.8-6.8c0-2.6,1.7-5.3,4-6.4l0.4-0.2V45c0-0.1,0-0.2,0-0.2
	l0-0.1l0-0.1c0-0.1,0-0.1,0-0.2c0-2.4,2-4.4,4.4-4.4c0.2,0,0.4,0,0.6,0c0,0,0.1,0,0.1,0c0.2,0,0.3,0.1,0.5,0.1c0,0,0,0,0.1,0
	c0.2,0.1,0.4,0.1,0.5,0.2c0,0,0.1,0,0.1,0.1c0.2,0.1,0.3,0.2,0.4,0.2c1.2,0.8,2,2.1,2,3.7c0,0.3,0.3,0.6,0.6,0.6s0.6-0.3,0.6-0.6
	c0-1.7-0.8-3.3-2-4.3c1.8-2.4,4.8-3.8,7.7-3.8c4.9,0,8.9,3.8,9.3,8.7c-0.6,0-1.6-0.1-2.6,0.1c-0.3,0.1-0.6,0.4-0.5,0.7
	c0,0.3,0.3,0.5,0.6,0.5c0,0,0.1,0,0.1,0c1.4-0.2,2.9,0,2.9,0c2.9,0.6,5.1,3.2,5.1,6.3C316,56,313.2,58.8,309.7,58.8z"/>
<circle class="st1" cx="192.8" cy="7.3" r="6.3"/>
<circle class="st2" cx="338.7" cy="99.6" r="3.6"/>
<path class="st3" d="M129,206.3"/>
<polyline class="st3" points="96.9,217.3 162.9,82.3 228.8,217.3 "/>
<line class="st3" x1="81.5" y1="79" x2="112.2" y2="79"/>
<line class="st3" x1="84.9" y1="86" x2="70.9" y2="86"/>
<line class="st3" x1="173.6" y1="26.8" x2="182.2" y2="26.8"/>
<line class="st3" x1="295.1" y1="93.2" x2="307.1" y2="93.2"/>
<line class="st3" x1="329.2" y1="66" x2="357.9" y2="66"/>
<line class="st3" x1="324.1" y1="71.7" x2="330.9" y2="71.7"/>
<polyline class="st3" points="184.6,122.8 242.4,3.8 353.1,220.7 "/>
<path class="st1" d="M188.5,134.7"/>
<circle class="st1" cx="429.3" cy="56" r="27.9"/>
<path class="st1" d="M429.4,23.1"/>
<path class="st1" d="M424.2,23.5"/>
<path class="st1" d="M402.8,36.7c0.7-0.9,1.4-1.8,2.2-2.7"/>
<path class="st1" d="M402.8,36.7"/>
<path class="st1" d="M396.5,56c0-3.4,0.5-6.6,1.4-9.7"/>
<path class="st1" d="M429.4,88.9c-3.7,0-7.3-0.6-10.6-1.8"/>
<path class="st1" d="M461,64.7c-0.5,1.7-1.1,3.4-1.8,5"/>
<path class="st1" d="M462.2,56c0,3-0.4,6-1.2,8.7"/>
<path class="st1" d="M449.4,30"/>
<path class="st1" d="M429.4,23.1c2.9,0,5.7,0.4,8.4,1.1"/>
<circle class="st1" cx="429.5" cy="56" r="27.9"/>
<path class="st1" d="M462.2,56c0,1.1-0.1,2.3-0.2,3.4"/>
<path class="st1" d="M455.9,36.7c2,2.7,3.5,5.6,4.5,8.7"/>
<path class="st1" d="M410,29.4c3-2.2,6.3-3.8,9.6-4.8"/>
<path class="st1" d="M402.8,75.3c-1.8-2.4-3.2-5.1-4.2-7.8"/>
<path class="st1" d="M448.7,82.6c-2.3,1.7-4.8,3.1-7.4,4.1"/>
<polyline class="st1" points="138.6,132.1 157.2,132.1 162.1,136.9 166.6,132.4 186.9,132.4 "/>
<polyline class="st1" points="206.7,79.1 235.2,79.1 242.8,84.3 249.8,79.4 280.9,79.4 "/>
<path class="st1" d="M153.4,247.5"/>
<path class="st2" d="M129,226.1"/>
<polyline class="st4" points="129,204.6 138.8,193.1 148.6,204.6 "/>
<line class="st4" x1="138.8" y1="212.7" x2="138.8" y2="177.6"/>
<polyline class="st4" points="129,198.8 138.8,187.3 148.6,198.8 "/>
<polyline class="st4" points="129,193.7 138.8,182.2 148.6,193.7 "/>
<polyline class="st4" points="129,189.2 138.8,177.7 148.6,189.2 "/>
<path class="st2" d="M207,197.2"/>
<polyline class="st4" points="164.6,223.1 182.2,202.5 199.9,223.1 "/>
<line class="st4" x1="182.2" y1="237.8" x2="182.2" y2="174.7"/>
<polyline class="st4" points="164.6,212.8 182.2,192.2 199.9,212.8 "/>
<polyline class="st4" points="164.6,203.6 182.2,183 199.9,203.6 "/>
<polyline class="st4" points="164.6,195.5 182.2,174.9 199.9,195.5 "/>
<polyline class="st4" points="395.4,221.1 417.2,195.7 439,221.1 "/>
<line class="st4" x1="417.2" y1="239.3" x2="417.2" y2="161.4"/>
<polyline class="st4" points="395.4,208.4 417.2,182.9 439,208.4 "/>
<polyline class="st4" points="395.4,197 417.2,171.5 439,197 "/>
<polyline class="st4" points="395.4,187.1 417.2,161.6 439,187.1 "/>
<line class="st4" x1="0.8" y1="247.5" x2="487.8" y2="247.5"/>
<line class="st4" x1="0.8" y1="342.5" x2="487.8" y2="342.5"/>
<line class="st4" x1="17.8" y1="294.5" x2="37.8" y2="294.5"/>
<line class="st4" x1="100.1" y1="294.5" x2="117.8" y2="294.5"/>
<line class="st4" x1="171.9" y1="294.5" x2="191.9" y2="294.5"/>
<line class="st4" x1="245.2" y1="294.5" x2="262.9" y2="294.5"/>
<line class="st4" x1="314.8" y1="294.5" x2="334.8" y2="294.5"/>
<line class="st4" x1="411.3" y1="294.5" x2="428.9" y2="294.5"/>
<line class="st4" x1="265.4" y1="198.6" x2="265.4" y2="188.3"/>
<circle class="st2" cx="265.2" cy="187.5" r="5.5"/>
<line class="st4" x1="50" y1="232" x2="50" y2="200.3"/>
<circle class="st2" cx="49.6" cy="197.6" r="17"/>
<circle class="st2" cx="101.4" cy="130" r="4.5"/>
<path class="st0" d="M350.5,332.6h3.5c0.4,3.6,3.4,6.2,7,6.2c3.6,0,6.6-2.7,7-6.2h22.8c0.4,3.6,3.4,6.2,7,6.2c3.6,0,6.6-2.7,7-6.2
	h7.4c0.6,0,1.2-0.5,1.2-1.2v-33.3c0-0.6-0.5-1.2-1.2-1.2h-40.8c-0.6,0-1.2,0.5-1.2,1.2v6.6h-10c-0.4,0-0.7,0.2-1,0.5l-6.4,9.2
	l-2.5,3.5l-0.9,1.3c-0.1,0.2-0.2,0.4-0.2,0.7v11.4c0,0.3,0.1,0.6,0.3,0.8C349.9,332.5,350.2,332.6,350.5,332.6z M361,336.1
	c-2.6,0-4.7-2.1-4.7-4.7c0-2.6,2.1-4.7,4.7-4.7c2.6,0,4.7,2.1,4.7,4.7C365.7,334,363.6,336.2,361,336.1L361,336.1z M397.8,336.1
	c-2.6,0-4.7-2.1-4.7-4.7c0-2.6,2.1-4.7,4.7-4.7c2.6,0,4.7,2.1,4.7,4.7C402.5,334,400.4,336.2,397.8,336.1L397.8,336.1z M411.1,299.3
	v21.1h-31.9c-0.6,0-1.2,0.5-1.2,1.2c0,0.6,0.5,1.2,1.2,1.2h31.9v7.5h-6.3c-0.4-3.6-3.4-6.2-7-6.2c-3.6,0-6.6,2.7-7,6.2h-18.1v-25.6
	h8.5c0.6,0,1.2-0.5,1.2-1.2c0-0.6-0.5-1.2-1.2-1.2h-8.5v-3H411.1z M361,307.1h9.4v23.2H368c-0.4-3.6-3.4-6.2-7-6.2
	c-3.6,0-6.6,2.7-7,6.2h-2.3v-9.9l0.4-0.5h14.3c0.6,0,1.2-0.5,1.2-1.2V310c0-0.6-0.5-1.2-1.2-1.2h-6.6L361,307.1z M358.1,311.2h7v6.3
	h-11.5L358.1,311.2z"/>
<path class="st0" d="M126,281.9h2.9c0.3,2.9,2.8,5.1,5.7,5.1c2.9,0,5.4-2.2,5.7-5.1H159c0.3,2.9,2.8,5.1,5.7,5.1
	c2.9,0,5.4-2.2,5.7-5.1h6.1c0.5,0,1-0.4,1-1v-27.2c0-0.5-0.4-1-1-1h-33.4c-0.5,0-1,0.4-1,1v5.4H134c-0.3,0-0.6,0.2-0.8,0.4L128,267
	l-2.1,2.9l-0.8,1.1c-0.1,0.2-0.2,0.4-0.2,0.5v9.4c0,0.3,0.1,0.5,0.3,0.7C125.5,281.8,125.7,281.9,126,281.9z M134.6,284.8
	c-2.1,0-3.8-1.7-3.8-3.8c0-2.1,1.7-3.8,3.8-3.8c2.1,0,3.8,1.7,3.8,3.8C138.4,283.1,136.7,284.8,134.6,284.8L134.6,284.8z
	 M164.7,284.8c-2.1,0-3.8-1.7-3.8-3.8c0-2.1,1.7-3.8,3.8-3.8c2.1,0,3.8,1.7,3.8,3.8C168.5,283.1,166.8,284.8,164.7,284.8
	L164.7,284.8z M175.5,254.7v17.2h-26.1c-0.5,0-1,0.4-1,1c0,0.5,0.4,1,1,1h26.1v6.2h-5.1c-0.3-2.9-2.8-5.1-5.7-5.1
	c-2.9,0-5.4,2.2-5.7,5.1h-14.8V259h6.9c0.5,0,1-0.4,1-1c0-0.5-0.4-1-1-1h-6.9v-2.5H175.5z M134.5,261h7.7v19h-1.9
	c-0.3-2.9-2.8-5.1-5.7-5.1c-2.9,0-5.4,2.2-5.7,5.1h-1.9v-8.1l0.3-0.4h11.7c0.5,0,1-0.4,1-1v-7.1c0-0.5-0.4-1-1-1h-5.4L134.5,261z
	 M132.2,264.3h5.8v5.2h-9.4L132.2,264.3z"/>
<line class="st5" x1="181" y1="257.8" x2="201.6" y2="257.8"/>
<line class="st6" x1="191.2" y1="263" x2="212.8" y2="263"/>
<line class="st6" x1="180.4" y1="268.4" x2="202" y2="268.4"/>
<line class="st5" x1="417.2" y1="300.2" x2="437.9" y2="300.2"/>
<line class="st6" x1="427.4" y1="305.5" x2="449.2" y2="305.5"/>
<line class="st6" x1="416.5" y1="311" x2="438.3" y2="311"/>
<polyline class="st4" points="283.8,212.5 297.3,196.7 310.8,212.5 "/>
<line class="st4" x1="297.3" y1="223.7" x2="297.3" y2="175.4"/>
<polyline class="st4" points="283.8,204.6 297.3,188.8 310.8,204.6 "/>
<polyline class="st4" points="283.8,197.5 297.3,181.7 310.8,197.5 "/>
<polyline class="st4" points="283.8,191.4 297.3,175.6 310.8,191.4 "/>
<line class="st4" x1="35.6" y1="38.7" x2="44.2" y2="47.4"/>
<line class="st4" x1="44.2" y1="38.7" x2="35.6" y2="47.4"/>
<line class="st4" x1="387.5" y1="112.3" x2="391.9" y2="116.6"/>
<line class="st4" x1="391.9" y1="112.3" x2="387.5" y2="116.6"/>
</svg>
